[2026-03-25T04:54:38] SOURCE: D:\apps\ErsatzTV-HLS-Copy-Prep\source\32.mp4
[2026-03-25T04:54:38] TARGET: D:\apps\ErsatzTV-HLS-Copy-Prep\target\32.mp4
[2026-03-25T04:54:38] FPS: 25.000000
[2026-03-25T04:54:38] CMD: ["D:\\apps\\ErsatzTV-HLS-Copy-Prep\\bin\\ffmpeg.exe", "-y", "-hide_banner", "-loglevel", "info", "-stats_period", "5", "-progress", "pipe:1", "-i", "D:\\apps\\ErsatzTV-HLS-Copy-Prep\\source\\32.mp4", "-map", "0:v:0", "-map", "0:a:0?", "-sn", "-dn", "-vf", "scale=trunc(iw/2)*2:trunc(ih/2)*2,setsar=1,fps=25", "-c:v", "libx264", "-preset", "medium", "-crf", "18", "-pix_fmt", "yuv420p", "-profile:v", "high", "-level", "4.1", "-g", "25", "-keyint_min", "25", "-sc_threshold", "0", "-bf", "0", "-force_key_frames", "expr:gte(t,n_forced*1)", "-c:a", "aac", "-b:a", "192k", "-ar", "48000", "-ac", "2", "-movflags", "+faststart", "D:\\apps\\ErsatzTV-HLS-Copy-Prep\\target\\32.mp4"]

ffmpeg stats and -progress period set to 5.
[mov,mp4,m4a,3gp,3g2,mj2 @ 000002c78c0e6f80] stream 0, timescale not set
Input #0, mov,mp4,m4a,3gp,3g2,mj2, from 'D:\apps\ErsatzTV-HLS-Copy-Prep\source\32.mp4':
  Metadata:
    major_brand     : isom
    minor_version   : 512
    compatible_brands: isomiso2mp41
    encoder         : OurTV Multimedia Platform
  Duration: 00:25:21.32, start: 0.000000, bitrate: 1792 kb/s
  Stream #0:0[0x1](und): Video: hevc (Main) (hev1 / 0x31766568), yuv420p(tv, bt709), 3840x2160 [SAR 1:1 DAR 16:9], 1660 kb/s, 25 fps, 25 tbr, 90k tbn (default)
      Metadata:
        handler_name    : VideoHandler
        vendor_id       : [0][0][0][0]
  Stream #0:1[0x2](und): Audio: aac (LC) (mp4a / 0x6134706D), 48000 Hz, stereo, fltp, 125 kb/s (default)
      Metadata:
        handler_name    : SoundHandler
        vendor_id       : [0][0][0][0]
  Stream #0:2[0x0]: Video: mjpeg (Baseline), yuvj444p(pc, bt470bg/unknown/unknown), 800x800, 90k tbr, 90k tbn (attached pic)
Stream mapping:
  Stream #0:0 -> #0:0 (hevc (native) -> h264 (libx264))
  Stream #0:1 -> #0:1 (aac (native) -> aac (native))
Press [q] to stop, [?] for help
[libx264 @ 000002c78df918c0] using SAR=1/1
[libx264 @ 000002c78df918c0] frame MB size (240x135) > level limit (8192)
[libx264 @ 000002c78df918c0] MB rate (810000) > level limit (245760)
[libx264 @ 000002c78df918c0] using cpu capabilities: MMX2 SSE2Fast SSSE3 SSE4.2 AVX
[libx264 @ 000002c78df918c0] profile High, level 4.1, 4:2:0, 8-bit
[libx264 @ 000002c78df918c0] 264 - core 165 - H.264/MPEG-4 AVC codec - Copyleft 2003-2025 - http://www.videolan.org/x264.html - options: cabac=1 ref=1 deblock=1:0:0 analyse=0x3:0x113 me=hex subme=7 psy=1 psy_rd=1.00:0.00 mixed_ref=0 me_range=16 chroma_me=1 trellis=1 8x8dct=1 cqm=0 deadzone=21,11 fast_pskip=1 chroma_qp_offset=-2 threads=12 lookahead_threads=2 sliced_threads=0 nr=0 decimate=1 interlaced=0 bluray_compat=0 constrained_intra=0 bframes=0 weightp=2 keyint=25 keyint_min=13 scenecut=0 intra_refresh=0 rc_lookahead=25 rc=crf mbtree=1 crf=18.0 qcomp=0.60 qpmin=0 qpmax=69 qpstep=4 ip_ratio=1.40 aq=1:1.00
Output #0, mp4, to 'D:\apps\ErsatzTV-HLS-Copy-Prep\target\32.mp4':
  Metadata:
    major_brand     : isom
    minor_version   : 512
    compatible_brands: isomiso2mp41
    encoder         : Lavf61.7.100
  Stream #0:0(und): Video: h264 (avc1 / 0x31637661), yuv420p(tv, bt709, progressive), 3840x2160 [SAR 1:1 DAR 16:9], q=2-31, 25 fps, 12800 tbn (default)
      Metadata:
        handler_name    : VideoHandler
        vendor_id       : [0][0][0][0]
        encoder         : Lavc61.19.101 libx264
      Side data:
        cpb: bitrate max/min/avg: 0/0/0 buffer size: 0 vbv_delay: N/A
  Stream #0:1(und): Audio: aac (LC) (mp4a / 0x6134706D), 48000 Hz, stereo, fltp, 192 kb/s (default)
      Metadata:
        handler_name    : SoundHandler
        vendor_id       : [0][0][0][0]
        encoder         : Lavc61.19.101 aac
[vost#0:0/libx264 @ 000002c78df91540] Error submitting a packet to the muxer: No space left on device
    Last message repeated 1 times
[out#0/mp4 @ 000002c78c0eadc0] Error muxing a packet
[out#0/mp4 @ 000002c78c0eadc0] Task finished with error code: -28 (No space left on device)
[out#0/mp4 @ 000002c78c0eadc0] Terminating thread with return code -28 (No space left on device)
[mp4 @ 000002c78e09c300] Starting second pass: moving the moov atom to the beginning of the file
[out#0/mp4 @ 000002c78c0eadc0] Error writing trailer: No space left on device
[out#0/mp4 @ 000002c78c0eadc0] Error closing file: No space left on device
[out#0/mp4 @ 000002c78c0eadc0] video:268KiB audio:62KiB subtitle:0KiB other streams:0KiB global headers:0KiB muxing overhead: unknown
frame=   10 fps=1.3 q=-1.0 Lsize=       0KiB time=00:00:00.44 bitrate=   0.9kbits/s speed=0.0582x    
frame=10
fps=1.32
stream_0_0_q=-1.0
bitrate=   0.9kbits/s
total_size=48
out_time_us=440000
out_time_ms=440000
out_time=00:00:00.440000
dup_frames=0
drop_frames=0
speed=0.0582x
progress=end
[libx264 @ 000002c78df918c0] frame I:4     Avg QP: 8.46  size:125050
[libx264 @ 000002c78df918c0] frame P:85    Avg QP:14.14  size: 51979
[libx264 @ 000002c78df918c0] mb I  I16..4: 42.6% 48.8%  8.6%
[libx264 @ 000002c78df918c0] mb P  I16..4:  6.0% 21.0%  1.3%  P16..4: 18.4%  4.9%  1.2%  0.0%  0.0%    skip:47.2%
[libx264 @ 000002c78df918c0] 8x8 transform intra:70.6% inter:83.9%
[libx264 @ 000002c78df918c0] coded y,uvDC,uvAC intra: 12.2% 14.1% 7.4% inter: 9.2% 13.5% 1.2%
[libx264 @ 000002c78df918c0] i16 v,h,dc,p: 56% 27%  6% 11%
[libx264 @ 000002c78df918c0] i8 v,h,dc,ddl,ddr,vr,hd,vl,hu: 52% 13% 27%  1%  2%  1%  1%  1%  1%
[libx264 @ 000002c78df918c0] i4 v,h,dc,ddl,ddr,vr,hd,vl,hu: 41% 22% 21%  3%  5%  3%  3%  2%  1%
[libx264 @ 000002c78df918c0] i8c dc,h,v,p: 76% 11% 11%  1%
[libx264 @ 000002c78df918c0] Weighted P-Frames: Y:18.8% UV:12.9%
[libx264 @ 000002c78df918c0] kb/s:11052.61
[aac @ 000002c78de3dd40] Qavg: 1764.621
Conversion failed!
